<svg xmlns="http://www.w3.org/2000/svg" viewBox="0 0 100 100" role="img" aria-label="Intellectum AI Solutions">
  <defs>
    <linearGradient id="ig" x1="0" y1="0" x2="1" y2="1">
      <stop offset="0" stop-color="#5eead4"/>
      <stop offset=".5" stop-color="#22d3ee"/>
      <stop offset="1" stop-color="#a78bfa"/>
    </linearGradient>
  </defs>
  <rect width="100" height="100" rx="22" fill="#0a0a0a"/>
  <g fill="none" stroke="url(#ig)" stroke-linecap="round" stroke-linejoin="round" stroke-width="7">
    <path d="M50 27C44 21 33 23 31 32C22 34 19 44 25 51C20 58 25 68 34 68C37 76 48 79 53 73C62 77 72 71 71 62C79 58 81 47 74 41C77 32 68 24 60 27C57 25 53 25 50 27Z"/>
    <path d="M50 27V44H38"/>
    <path d="M62 55H50V72"/>
  </g>
  <g fill="url(#ig)">
    <circle cx="36" cy="44" r="6"/>
    <circle cx="64" cy="55" r="6"/>
  </g>
</svg>
